<?xml version="1.0" encoding="UTF-8" standalone="no"?>
<!-- Created with Inkscape (http://www.inkscape.org/) -->

<svg
   id="svg2845"
   sodipodi:docname="epubs.svg"
   viewBox="0 0 64 64"
   sodipodi:version="0.32"
   version="1.0"
   inkscape:output_extension="org.inkscape.output.svg.inkscape"
   inkscape:version="1.2.2 (b0a8486541, 2022-12-01)"
   width="64"
   height="64"
   xmlns:inkscape="http://www.inkscape.org/namespaces/inkscape"
   xmlns:sodipodi="http://sodipodi.sourceforge.net/DTD/sodipodi-0.dtd"
   xmlns:xlink="http://www.w3.org/1999/xlink"
   xmlns="http://www.w3.org/2000/svg"
   xmlns:svg="http://www.w3.org/2000/svg"
   xmlns:rdf="http://www.w3.org/1999/02/22-rdf-syntax-ns#"
   xmlns:cc="http://creativecommons.org/ns#"
   xmlns:dc="http://purl.org/dc/elements/1.1/">
  <defs
     id="defs2847">
    <linearGradient
       id="linearGradient4163"
       y2="63.729"
       gradientUnits="userSpaceOnUse"
       x2="38.487"
       gradientTransform="matrix(-1,0,-1.6326,1,132.73,0)"
       y1="44.141998"
       x1="-2.4459"
       inkscape:collect="always">
      <stop
         id="stop7164"
         style="stop-color:#8888c4"
         offset="0" />
      <stop
         id="stop7166"
         style="stop-color:#333366"
         offset="1" />
    </linearGradient>
  </defs>
  <sodipodi:namedview
     id="base"
     bordercolor="#666666"
     inkscape:pageshadow="2"
     inkscape:window-y="164"
     pagecolor="#ffffff"
     inkscape:window-height="727"
     inkscape:zoom="7.546875"
     inkscape:window-x="548"
     showgrid="false"
     borderopacity="1.0"
     inkscape:current-layer="layer2"
     inkscape:cx="31.933747"
     inkscape:cy="32"
     inkscape:window-width="1280"
     inkscape:pageopacity="0.0"
     inkscape:document-units="px"
     inkscape:showpageshadow="2"
     inkscape:pagecheckerboard="0"
     inkscape:deskcolor="#d1d1d1"
     inkscape:window-maximized="0" />
  <g
     id="layer1"
     inkscape:label="background"
     transform="translate(176.1,-59.114)"
     inkscape:groupmode="layer">
    <rect
       id="rect2160"
       style="fill:#ccccff;stroke:#4d4d4d;stroke-width:0.371112"
       rx="3.1543984"
       ry="3.1543987"
       height="61.628887"
       width="61.628887"
       y="60.299557"
       x="-174.91444" />
  </g>
  <g
     id="layer2"
     inkscape:label="icon"
     inkscape:groupmode="layer">
    <g
       id="g4137"
       transform="matrix(0.32164024,0,0,0.32164024,-52.329023,-43.429359)">
      <g
         id="g7170"
         transform="matrix(-1,0,0,1,302.95,140.81)">
        <rect
           id="rect6164"
           style="fill:#ffaaaa;stroke:#1a1a1a;stroke-width:1.5856;stroke-linejoin:round"
           transform="matrix(1,0,0.81631,0.57762,0,0)"
           height="34.348"
           width="79.196999"
           y="175.78"
           x="-131.44" />
        <path
           id="path6166"
           sodipodi:nodetypes="ccccc"
           style="fill:#ffffff;stroke:#1a1a1a;stroke-width:1.2051;stroke-linejoin:round"
           d="m 11.803,101.4 27.605,19.45 c 3.366,7.82 2.485,12.55 0,16.11 L 11.803,117.52 Z" />
        <path
           id="path6168"
           sodipodi:nodetypes="ccccc"
           style="fill:#ffaaaa;stroke:#1a1a1a;stroke-width:1.2051"
           d="m 39.308,121.72 h 79.982 c 2.33,6.23 2.04,11.27 0,15.52 H 39.308 c 1.969,-4.43 3.945,-9 0,-15.52 z" />
        <rect
           id="rect6156"
           style="fill:#008000;stroke:#1a1a1a;stroke-width:1.5856;stroke-linejoin:round"
           transform="matrix(1,0,0.81631,0.57762,0,0)"
           height="34.348"
           width="79.196999"
           y="141.16"
           x="-103.18" />
        <path
           id="path6158"
           sodipodi:nodetypes="ccccc"
           style="fill:#ffffff;stroke:#1a1a1a;stroke-width:1.2051;stroke-linejoin:round"
           d="m 11.803,81.401 27.605,19.449 c 3.366,7.82 2.485,12.55 0,16.11 L 11.803,97.516 Z" />
        <path
           id="path6160"
           sodipodi:nodetypes="ccccc"
           style="fill:#008000;stroke:#1a1a1a;stroke-width:1.2051"
           d="m 39.308,101.72 h 79.982 c 2.33,6.23 2.04,11.27 0,15.52 H 39.308 c 1.969,-4.43 3.945,-9 0,-15.52 z" />
        <rect
           id="rect6148"
           style="fill:#ffff00;stroke:#1a1a1a;stroke-width:1.5856;stroke-linejoin:round"
           transform="matrix(1,0,0.81631,0.57762,0,0)"
           height="34.348"
           width="79.196999"
           y="106.53"
           x="-74.913002" />
        <path
           id="path6150"
           sodipodi:nodetypes="ccccc"
           style="fill:#ffffff;stroke:#1a1a1a;stroke-width:1.2051;stroke-linejoin:round"
           d="m 11.803,61.401 27.605,19.445 c 3.366,7.82 2.485,12.551 0,16.115 L 11.803,77.516 Z" />
        <path
           id="path6152"
           sodipodi:nodetypes="ccccc"
           style="fill:#ffff00;stroke:#1a1a1a;stroke-width:1.2051"
           d="m 39.308,81.718 h 79.982 c 2.33,6.231 2.04,11.275 0,15.518 H 39.308 c 1.969,-4.426 3.945,-8.992 0,-15.518 z" />
        <rect
           id="rect6140"
           style="fill:#ff6600;stroke:#1a1a1a;stroke-width:1.5856;stroke-linejoin:round"
           transform="matrix(1,0,0.81631,0.57762,0,0)"
           height="34.348"
           width="79.196999"
           y="71.908997"
           x="-46.647999" />
        <path
           id="path6142"
           sodipodi:nodetypes="ccccc"
           style="fill:#ffffff;stroke:#1a1a1a;stroke-width:1.2051;stroke-linejoin:round"
           d="m 11.803,41.401 27.605,19.445 c 3.366,7.82 2.485,12.551 0,16.115 L 11.803,57.516 Z" />
        <path
           id="path6144"
           sodipodi:nodetypes="ccccc"
           style="fill:#ff6600;stroke:#1a1a1a;stroke-width:1.2051"
           d="m 39.308,61.718 h 79.982 c 2.33,6.231 2.04,11.275 0,15.518 H 39.308 c 1.969,-4.426 3.945,-8.992 0,-15.518 z" />
        <rect
           id="rect6132"
           style="fill:url(#linearGradient4163);stroke:#1a1a1a;stroke-width:1.5856;stroke-linejoin:round"
           transform="matrix(1,0,0.81631,0.57762,0,0)"
           height="34.348"
           width="79.196999"
           y="37.284"
           x="-18.382999" />
        <path
           id="path6134"
           sodipodi:nodetypes="ccccc"
           style="fill:#ffffff;stroke:#1a1a1a;stroke-width:1.2051;stroke-linejoin:round"
           d="m 11.803,21.401 27.605,19.445 c 3.366,7.82 2.485,12.551 0,16.115 L 11.803,37.516 Z" />
        <path
           id="path6136"
           sodipodi:nodetypes="ccccc"
           style="fill:#333366;stroke:#1a1a1a;stroke-width:1.2051"
           d="m 39.308,41.718 h 79.982 c 2.33,6.231 2.04,11.275 0,15.518 H 39.308 c 1.969,-4.426 3.945,-8.992 0,-15.518 z" />
      </g>
      <g
         id="g4775"
         transform="translate(178.21,143.81)">
        <rect
           id="rect3757"
           style="fill:#d38d5f;stroke:#1a1a1a;stroke-width:1.3421"
           transform="matrix(0.98597,-0.16689,0.21075,0.97754,0,0)"
           height="95.997002"
           width="130.28999"
           y="68.425003"
           x="1.7232" />
        <g
           id="g3759"
           transform="matrix(1.0277,-0.17396,0.16185,0.75073,458.22,45.46)">
          <path
             id="rect3750"
             sodipodi:nodetypes="ccccc"
             style="fill:#e6e6e6;stroke:#1a1a1a;stroke-width:1.5"
             d="m -417,-64 c 18.26,-8.454 38.08,-7.535 59,0 V 54 c -17.11,-5.114 -34.09,-10.478 -59,0 z" />
          <path
             id="path3755"
             sodipodi:nodetypes="ccccc"
             style="fill:#e6e6e6;stroke:#1a1a1a;stroke-width:1.5"
             d="m -357,-64 c 18.26,-8.454 38.08,-7.535 59,0 V 54 c -17.11,-5.114 -34.09,-10.478 -59,0 z" />
        </g>
        <use
           id="use3775"
           xlink:href="#g3759"
           transform="translate(2.3073,-2)"
           height="180"
           width="180"
           y="0"
           x="0" />
        <use
           id="use3777"
           xlink:href="#g3759"
           transform="translate(4.6146,-4)"
           height="180"
           width="180"
           y="0"
           x="0" />
        <path
           id="path3779"
           sodipodi:nodetypes="cccccc"
           style="fill:#800000;fill-rule:evenodd"
           d="m 72.114,53.111 c 4.521,-5.873 32.056,87.579 26.666,115.9 4,-9.49 4.74,-13.67 4.74,-13.67 -0.18,0.13 2.55,-0.28 2.04,13.88 10.09,-7.92 -19.505,-122.2 -23.339,-116.55 -5.819,-0.005 -8.797,1.026 -10.107,0.441 z" />
      </g>
    </g>
  </g>
  <metadata
     id="metadata35">
    <rdf:RDF>
      <cc:Work>
        <dc:format>image/svg+xml</dc:format>
        <dc:type
           rdf:resource="http://purl.org/dc/dcmitype/StillImage" />
        <cc:license
           rdf:resource="http://creativecommons.org/publicdomain/zero/1.0/" />
        <dc:publisher>
          <cc:Agent
             rdf:about="http://openclipart.org/">
            <dc:title>Openclipart</dc:title>
          </cc:Agent>
        </dc:publisher>
        <dc:title>Books icon</dc:title>
        <dc:date>2008-12-01T15:04:41</dc:date>
        <dc:description>Books icon Originally developed for www.studenti.unige.it</dc:description>
        <dc:source>https://openclipart.org/detail/20501/books-icon-by-cod_fsfe</dc:source>
        <dc:creator>
          <cc:Agent>
            <dc:title>CoD_fsfe</dc:title>
          </cc:Agent>
        </dc:creator>
        <dc:subject>
          <rdf:Bag>
            <rdf:li>book</rdf:li>
            <rdf:li>color</rdf:li>
            <rdf:li>icon</rdf:li>
            <rdf:li>inkscape</rdf:li>
            <rdf:li>study</rdf:li>
            <rdf:li>web</rdf:li>
            <rdf:li>webdesign</rdf:li>
          </rdf:Bag>
        </dc:subject>
      </cc:Work>
      <cc:License
         rdf:about="http://creativecommons.org/publicdomain/zero/1.0/">
        <cc:permits
           rdf:resource="http://creativecommons.org/ns#Reproduction" />
        <cc:permits
           rdf:resource="http://creativecommons.org/ns#Distribution" />
        <cc:permits
           rdf:resource="http://creativecommons.org/ns#DerivativeWorks" />
      </cc:License>
    </rdf:RDF>
  </metadata>
</svg>
