<?xml version="1.0" standalone="yes"?>

<svg version="1.1" viewBox="0.0 0.0 510.28871391076115 587.3385826771654" fill="none" stroke="none" stroke-linecap="square" stroke-miterlimit="10" xmlns="http://www.w3.org/2000/svg" xmlns:xlink="http://www.w3.org/1999/xlink"><clipPath id="p.0"><path d="m0 0l510.28873 0l0 587.33856l-510.28873 0l0 -587.33856z" clip-rule="nonzero"></path></clipPath><g clip-path="url(#p.0)"><path fill="#000000" fill-opacity="0.0" d="m0 0l510.28873 0l0 587.33856l-510.28873 0z" fill-rule="evenodd"></path><path fill="#000000" d="m25.165354 94.47401l0 0c0 -43.339996 35.13401 -78.47401 78.474014 -78.47401l313.88663 0l0 0c20.812592 0 40.772766 8.267775 55.489502 22.984505c14.716736 14.716732 22.984497 34.676903 22.984497 55.489502l0 401.2567c0 43.340027 -35.134003 78.474 -78.474 78.474l-313.88663 0c-43.34 0 -78.474014 -35.133972 -78.474014 -78.474z" fill-rule="evenodd"></path><path stroke="#000000" stroke-width="1.0" stroke-linejoin="round" stroke-linecap="butt" d="m25.165354 94.47401l0 0c0 -43.339996 35.13401 -78.47401 78.474014 -78.47401l313.88663 0l0 0c20.812592 0 40.772766 8.267775 55.489502 22.984505c14.716736 14.716732 22.984497 34.676903 22.984497 55.489502l0 401.2567c0 43.340027 -35.134003 78.474 -78.474 78.474l-313.88663 0c-43.34 0 -78.474014 -35.133972 -78.474014 -78.474z" fill-rule="evenodd"></path><path fill="#ffffff" d="m64.0 122.47377l0 0c0 -36.71245 29.761322 -66.47377 66.47377 -66.47377l265.8871 0l0 0c17.629944 0 34.53781 7.0034676 47.00406 19.469719c12.466248 12.466248 19.469727 29.374115 19.469727 47.00405l0 348.4068c0 36.712463 -29.761322 66.473755 -66.473785 66.473755l-265.8871 0c-36.71245 0 -66.47377 -29.761292 -66.47377 -66.473755z" fill-rule="evenodd"></path><path stroke="#000000" stroke-width="1.0" stroke-linejoin="round" stroke-linecap="butt" d="m64.0 122.47377l0 0c0 -36.71245 29.761322 -66.47377 66.47377 -66.47377l265.8871 0l0 0c17.629944 0 34.53781 7.0034676 47.00406 19.469719c12.466248 12.466248 19.469727 29.374115 19.469727 47.00405l0 348.4068c0 36.712463 -29.761322 66.473755 -66.473785 66.473755l-265.8871 0c-36.71245 0 -66.47377 -29.761292 -66.47377 -66.473755z" fill-rule="evenodd"></path><path fill="#000000" fill-opacity="0.0" d="m99.32546 92.85302l67.149605 0l0 55.02363l-67.149605 0z" fill-rule="evenodd"></path><path fill="#000000" d="m123.52859 126.619896l-9.53125 0q-0.234375 0.828125 -0.359375 1.6718674q-0.125 0.828125 -0.125 1.65625q0 0.578125 0.0625 1.125q0.0625 0.546875 0.203125 1.046875l-2.4375 0.671875q-0.375 0.09375 -0.703125 0.09375q-0.953125 0 -0.953125 -0.921875q0 -0.078125 0.015625 -0.125q0.015625 -0.046875 0.015625 -0.125q0.140625 -1.171875 0.578125 -2.703125q0.453125 -1.5468674 1.09375 -3.2656174q0.640625 -1.71875 1.40625 -3.515625q0.765625 -1.796875 1.546875 -3.484375q0.78125 -1.703125 1.515625 -3.203125q0.734375 -1.5 1.296875 -2.625q0.578125 -1.125 0.921875 -1.765625q0.34375 -0.65625 0.34375 -0.65625l1.59375 0q0.390625 0 0.671875 0.0625q0.28125 0.046875 0.484375 0.1875q0.21875 0.140625 0.375 0.390625q0.171875 0.25 0.328125 0.640625l7.2031174 18.296867l2.75 -1.078125l0.515625 1.109375q-0.390625 0.359375 -0.984375 0.859375q-0.59375 0.484375 -1.296875 0.9375q-0.6875 0.4375 -1.4375 0.75q-0.7343674 0.3125 -1.4062424 0.3125q-0.4375 0 -0.78125 -0.203125q-0.34375 -0.203125 -0.5625 -0.703125l-2.34375 -5.4374924zm-4.734375 -12.546875q-0.6875 1.59375 -1.34375 3.046875q-0.640625 1.4375 -1.21875 2.734375q-0.5625 1.296875 -1.015625 2.46875q-0.4375 1.15625 -0.703125 2.15625l8.21875 0l-3.765625 -10.40625l-0.171875 0zm25.359367 17.124992q0 0 -0.21875 0.140625q-0.203125 0.125 -0.578125 0.328125q-0.359375 0.203125 -0.859375 0.453125q-0.484375 0.234375 -1.078125 0.453125q-0.578125 0.203125 -1.21875 0.34375q-0.625 0.140625 -1.265625 0.140625q-1.015625 0 -1.9375 -0.28125q-0.921875 -0.265625 -1.625 -0.84375q-0.6875 -0.578125 -1.109375 -1.453125q-0.40625 -0.875 -0.40625 -2.09375q0 -1.3437424 0.59375 -2.2812424q0.609375 -0.9375 1.671875 -1.515625q1.078125 -0.59375 2.5625 -0.84375q1.484375 -0.265625 3.265625 -0.265625l2.203125 0l0 -1.171875q0 -0.90625 -0.078125 -1.734375q-0.0625 -0.84375 -0.328125 -1.46875q-0.25 -0.625 -0.75 -1.0q-0.484375 -0.375 -1.3125 -0.375q-0.796875 0 -1.59375 0.296875q-0.796875 0.28125 -1.5625 0.71875q-0.765625 0.4375 -1.46875 0.96875q-0.703125 0.515625 -1.28125 0.984375l-1.28125 -1.71875q-0.234375 -0.28125 -0.234375 -0.578125q0 -0.515625 0.640625 -0.9375q0.65625 -0.421875 1.625 -0.71875q0.984375 -0.3125 2.109375 -0.484375q1.125 -0.171875 2.09375 -0.171875q1.4375 0 2.71875 0.34375q1.28125 0.34375 2.234375 1.09375q0.96875 0.734375 1.53125 1.921875q0.5625 1.171875 0.5625 2.859375l0 8.703117l2.71875 0l0 1.171875q-0.265625 0.140625 -0.734375 0.265625q-0.453125 0.125 -1.015625 0.21875q-0.5625 0.09375 -1.1875 0.140625q-0.609375 0.046875 -1.171875 0.046875q-0.375 0 -0.765625 -0.046875q-0.390625 -0.046875 -0.71875 -0.21875q-0.3125 -0.15625 -0.53125 -0.4375q-0.203125 -0.296875 -0.21875 -0.796875l0 -0.15625zm-4.125 -0.453125q0.546875 0 1.25 -0.140625q0.71875 -0.15625 1.359375 -0.328125q0.75 -0.203125 1.515625 -0.484375l0 -4.3906174l-2.625 0q-0.59375 0 -1.3125 0.109375q-0.703125 0.109375 -1.328125 0.421875q-0.609375 0.296875 -1.03125 0.84375q-0.421875 0.546875 -0.421875 1.4374924q0 0.5625 0.171875 1.03125q0.171875 0.453125 0.5 0.796875q0.328125 0.328125 0.8125 0.515625q0.484375 0.1875 1.109375 0.1875z" fill-rule="nonzero"></path><path fill="#000000" fill-opacity="0.0" d="m323.11285 134.86018l0 -83.62205l27.24411 -27.244093l27.24408 27.244093l0 83.62205l-27.24408 -27.244095z" fill-rule="evenodd"></path><path stroke="#000000" stroke-width="3.0" stroke-linejoin="round" stroke-linecap="butt" d="m323.11285 134.86018l0 -83.62205l27.24411 -27.244093l27.24408 27.244093l0 83.62205l-27.24408 -27.244095z" fill-rule="evenodd"></path><path fill="#000000" d="m321.9798 48.74076l28.0 -24.000002l28.0 24.000002z" fill-rule="evenodd"></path><path stroke="#000000" stroke-width="1.0" stroke-linejoin="round" stroke-linecap="butt" d="m321.9798 48.74076l28.0 -24.000002l28.0 24.000002z" fill-rule="evenodd"></path><path fill="#000000" fill-opacity="0.0" d="m379.6838 383.10236l-272.0 0" fill-rule="evenodd"></path><path stroke="#000000" stroke-width="1.0" stroke-linejoin="round" stroke-linecap="butt" d="m379.6838 383.10236l-272.0 0" fill-rule="evenodd"></path><path fill="#000000" fill-opacity="0.0" d="m380.58267 423.10236l-272.0 0" fill-rule="evenodd"></path><path stroke="#000000" stroke-width="1.0" stroke-linejoin="round" stroke-linecap="butt" d="m380.58267 423.10236l-272.0 0" fill-rule="evenodd"></path><path fill="#000000" fill-opacity="0.0" d="m292.58267 223.10236l-168.0 0" fill-rule="evenodd"></path><path stroke="#000000" stroke-width="1.0" stroke-linejoin="round" stroke-linecap="butt" d="m292.58267 223.10236l-168.0 0" fill-rule="evenodd"></path><path fill="#000000" fill-opacity="0.0" d="m292.58267 199.10236l-168.0 0" fill-rule="evenodd"></path><path stroke="#000000" stroke-width="1.0" stroke-linejoin="round" stroke-linecap="butt" d="m292.58267 199.10236l-168.0 0" fill-rule="evenodd"></path><path fill="#000000" fill-opacity="0.0" d="m204.58267 263.10236l136.0 0l0 88.0l-136.0 0z" fill-rule="evenodd"></path><path stroke="#000000" stroke-width="1.0" stroke-linejoin="round" stroke-linecap="butt" d="m204.58267 263.10236l136.0 0l0 88.0l-136.0 0z" fill-rule="evenodd"></path><path fill="#000000" d="m204.58267 351.10236l37.31328 -48.0l34.68672 48.0z" fill-rule="evenodd"></path><path stroke="#000000" stroke-width="1.0" stroke-linejoin="round" stroke-linecap="butt" d="m204.58267 351.10236l37.31328 -48.0l34.68672 48.0z" fill-rule="evenodd"></path><path fill="#000000" d="m228.58267 351.10236l37.313293 -48.0l34.686707 48.0z" fill-rule="evenodd"></path><path stroke="#000000" stroke-width="1.0" stroke-linejoin="round" stroke-linecap="butt" d="m228.58267 351.10236l37.313293 -48.0l34.686707 48.0z" fill-rule="evenodd"></path><path fill="#000000" d="m260.58267 351.10236l29.021454 -32.0l26.978546 32.0z" fill-rule="evenodd"></path><path stroke="#000000" stroke-width="1.0" stroke-linejoin="round" stroke-linecap="butt" d="m260.58267 351.10236l29.021454 -32.0l26.978546 32.0z" fill-rule="evenodd"></path><path fill="#ffff00" d="m332.58267 287.10236l-6.456665 2.2961426l0 -4.592285zm-4.6874084 -11.314056l-2.941101 6.1897583l-3.2471924 -3.2471924zm-11.312592 -4.6859436l2.2961426 6.456665l-4.592285 0zm-11.314056 4.6859436l6.1897583 2.942566l-3.2471924 3.2471924zm-4.6859436 11.314056l6.456665 -2.2961426l0 4.592285zm4.6859436 11.312592l2.942566 -6.1882935l3.2471924 3.2471924zm11.314056 4.6874084l-2.2961426 -6.456665l4.592285 0zm11.312592 -4.6874084l-6.1882935 -2.941101l3.2471924 -3.2471924zm-19.312592 -11.312592l0 0c0 -4.418274 3.581726 -8.0 8.0 -8.0c4.418274 0 8.0 3.581726 8.0 8.0c0 4.418274 -3.581726 8.0 -8.0 8.0c-4.418274 0 -8.0 -3.581726 -8.0 -8.0z" fill-rule="evenodd"></path><path stroke="#000000" stroke-width="1.0" stroke-linejoin="round" stroke-linecap="butt" d="m332.58267 287.10236l-6.456665 2.2961426l0 -4.592285zm-4.6874084 -11.314056l-2.941101 6.1897583l-3.2471924 -3.2471924zm-11.312592 -4.6859436l2.2961426 6.456665l-4.592285 0zm-11.314056 4.6859436l6.1897583 2.942566l-3.2471924 3.2471924zm-4.6859436 11.314056l6.456665 -2.2961426l0 4.592285zm4.6859436 11.312592l2.942566 -6.1882935l3.2471924 3.2471924zm11.314056 4.6874084l-2.2961426 -6.456665l4.592285 0zm11.312592 -4.6874084l-6.1882935 -2.941101l3.2471924 -3.2471924zm-19.312592 -11.312592l0 0c0 -4.418274 3.581726 -8.0 8.0 -8.0c4.418274 0 8.0 3.581726 8.0 8.0c0 4.418274 -3.581726 8.0 -8.0 8.0c-4.418274 0 -8.0 -3.581726 -8.0 -8.0z" fill-rule="evenodd"></path><path fill="#000000" fill-opacity="0.0" d="m380.58267 455.10236l-272.0 0" fill-rule="evenodd"></path><path stroke="#000000" stroke-width="1.0" stroke-linejoin="round" stroke-linecap="butt" d="m380.58267 455.10236l-272.0 0" fill-rule="evenodd"></path><path fill="#ffffff" d="m230.35695 547.1024l0 0c0 -2.2091675 1.7909088 -4.000061 4.0000916 -4.000061l41.57463 0c1.0608826 0 2.0783386 0.42144775 2.8284912 1.1716309c0.7501526 0.7501221 1.1716003 1.7675781 1.1716003 2.8284302l0 15.999878c0 2.2091675 -1.7908936 4.000061 -4.0000916 4.000061l-41.57463 0c-2.2091827 0 -4.0000916 -1.7908936 -4.0000916 -4.000061z" fill-rule="evenodd"></path><path stroke="#000000" stroke-width="1.0" stroke-linejoin="round" stroke-linecap="butt" d="m230.35695 547.1024l0 0c0 -2.2091675 1.7909088 -4.000061 4.0000916 -4.000061l41.57463 0c1.0608826 0 2.0783386 0.42144775 2.8284912 1.1716309c0.7501526 0.7501221 1.1716003 1.7675781 1.1716003 2.8284302l0 15.999878c0 2.2091675 -1.7908936 4.000061 -4.0000916 4.000061l-41.57463 0c-2.2091827 0 -4.0000916 -1.7908936 -4.0000916 -4.000061z" fill-rule="evenodd"></path></g></svg>

