<?xml version="1.0" encoding="UTF-8" standalone="no"?>
<!-- Created with Inkscape (http://www.inkscape.org/) -->

<svg
   width="128"
   height="128"
   viewBox="0 0 33.866666 33.866666"
   version="1.1"
   id="svg8196"
   inkscape:version="1.2.2 (b0a8486541, 2022-12-01, custom)"
   sodipodi:docname="khplayer.svg"
   xmlns:inkscape="http://www.inkscape.org/namespaces/inkscape"
   xmlns:sodipodi="http://sodipodi.sourceforge.net/DTD/sodipodi-0.dtd"
   xmlns="http://www.w3.org/2000/svg"
   xmlns:svg="http://www.w3.org/2000/svg">
  <sodipodi:namedview
     id="namedview8198"
     pagecolor="#ffffff"
     bordercolor="#666666"
     borderopacity="1.0"
     inkscape:showpageshadow="2"
     inkscape:pageopacity="0.0"
     inkscape:pagecheckerboard="0"
     inkscape:deskcolor="#d1d1d1"
     inkscape:document-units="px"
     showgrid="true"
     inkscape:zoom="10.101562"
     inkscape:cx="64"
     inkscape:cy="64"
     inkscape:window-width="2453"
     inkscape:window-height="1595"
     inkscape:window-x="664"
     inkscape:window-y="246"
     inkscape:window-maximized="0"
     inkscape:current-layer="layer1">
    <inkscape:grid
       type="xygrid"
       id="grid10515" />
  </sodipodi:namedview>
  <defs
     id="defs8193" />
  <g
     inkscape:label="Слой 1"
     inkscape:groupmode="layer"
     id="layer1">
    <rect
       style="fill:#ffffff;fill-opacity:0.991525;stroke-width:0.264999;stroke-linejoin:round;stroke-dasharray:none"
       id="rect12188"
       width="33.866665"
       height="33.866665"
       x="0"
       y="0" />
    <path
       style="fill:#aa0000;stroke:#000000;stroke-width:0.26499999;stroke-linecap:butt;stroke-linejoin:round;stroke-opacity:1;stroke-dasharray:none"
       d="M 31.75,33.072917 H 2.1166667 V 11.90625 H 0.79375 L 16.933333,0.52916667 33.072917,11.90625 l -1.322917,0 z"
       id="path10580"
       sodipodi:nodetypes="cccccccc" />
    <path
       id="rect13711"
       style="fill:#ffffff;fill-opacity:0.991525;stroke:#000000;stroke-width:0.264999;stroke-linejoin:round"
       d="m 10.054167,13.229166 c 1.322916,-0.529166 12.964582,-0.529167 14.287499,0 1.322917,0.529167 2.910416,1.322918 3.439583,3.439584 0.529167,2.116666 0.529167,8.202083 0,10.318749 -0.529167,2.116666 -1.852083,2.910417 -3.439583,3.439583 -1.5875,0.529166 -12.7,0.529167 -14.287499,0 -1.5874994,-0.529167 -2.9104171,-1.058333 -3.439584,-3.439583 -0.5291669,-2.38125 -0.5296432,-8.310219 0,-10.318749 0.5296432,-2.00853 2.1166679,-2.910418 3.439584,-3.439584 z"
       sodipodi:nodetypes="zzzzzzzzz" />
    <path
       style="fill:#cccccc;stroke:#000000;stroke-width:0.264583px;stroke-linecap:butt;stroke-linejoin:miter;stroke-opacity:1"
       d="M 11.1125,15.345833 25.664583,21.960416 11.1125,28.575 Z"
       id="path13701"
       sodipodi:nodetypes="cccc" />
  </g>
</svg>
